<svg xmlns="http://www.w3.org/2000/svg" width="520" height="414" viewBox="0 0 520 414" role="img" aria-label="BobaStation game compatibility">
<defs>
<linearGradient id="bg" x1="0" y1="0" x2="0" y2="1">
<stop offset="0%" stop-color="#f7f5ee"/>
<stop offset="100%" stop-color="#ebe6d8"/>
</linearGradient>
<filter id="soft" x="-4%" y="-8%" width="108%" height="120%">
<feDropShadow dx="0" dy="1" stdDeviation="1.2" flood-color="#5c5346" flood-opacity="0.08"/>
</filter>
</defs>
<rect width="520" height="414" rx="12" fill="url(#bg)"/>
<rect x="1" y="1" width="518" height="412" rx="11" fill="none" stroke="#d4c4a0" stroke-width="1"/>
<text x="16" y="24" fill="#3a342c" font-family="Segoe UI, system-ui, sans-serif" font-size="13" font-weight="700">BOBASTATION · GAME COMPAT</text>
<text x="16" y="42" fill="#7a7468" font-family="Segoe UI, system-ui, sans-serif" font-size="10">avg 25% · 9 titles · 2026-07-20</text>
<rect x="388" y="12" width="52" height="24" rx="7" fill="#e8d9b0"/>
<text x="414" y="28" text-anchor="middle" fill="#5a4a28" font-family="Segoe UI, system-ui, sans-serif" font-size="11" font-weight="700">25%</text>
<rect x="446" y="12" width="58" height="24" rx="7" fill="#d5e4ec"/>
<text x="475" y="28" text-anchor="middle" fill="#3d5a6c" font-family="Segoe UI, system-ui, sans-serif" font-size="11" font-weight="700">9</text>
<rect x="10" y="56" width="500" height="30" rx="8" fill="#fffcf5" filter="url(#soft)" stroke="#e4dcc8" stroke-width="1"/>
<text x="20" y="70" fill="#2f2a24" font-family="Segoe UI, system-ui, sans-serif" font-size="11" font-weight="700">Dreaming Sarah</text>
<text x="20" y="82" fill="#8a8376" font-family="Segoe UI, system-ui, sans-serif" font-size="9">Unity · great</text>
<rect x="268" y="67" width="130" height="10" rx="5" fill="#e0d9c8"/>
<rect x="268" y="67" width="71" height="10" rx="5" fill="#c4a35a"/>
<text x="406" y="77" fill="#c4a35a" font-family="Segoe UI, system-ui, sans-serif" font-size="12" font-weight="700">55%</text>
<rect x="10" y="92" width="500" height="30" rx="8" fill="#f3efe4" filter="url(#soft)" stroke="#e4dcc8" stroke-width="1"/>
<text x="20" y="106" fill="#2f2a24" font-family="Segoe UI, system-ui, sans-serif" font-size="11" font-weight="700">Skautfold</text>
<text x="20" y="118" fill="#8a8376" font-family="Segoe UI, system-ui, sans-serif" font-size="9">GameMaker · ok</text>
<rect x="268" y="103" width="130" height="10" rx="5" fill="#e0d9c8"/>
<rect x="268" y="103" width="65" height="10" rx="5" fill="#9a7bb8"/>
<text x="406" y="113" fill="#9a7bb8" font-family="Segoe UI, system-ui, sans-serif" font-size="12" font-weight="700">50%</text>
<rect x="10" y="128" width="500" height="30" rx="8" fill="#fffcf5" filter="url(#soft)" stroke="#e4dcc8" stroke-width="1"/>
<text x="20" y="142" fill="#2f2a24" font-family="Segoe UI, system-ui, sans-serif" font-size="11" font-weight="700">Tactics Ogre: Reborn</text>
<text x="20" y="154" fill="#8a8376" font-family="Segoe UI, system-ui, sans-serif" font-size="9">Proprietary | Square E · choppy</text>
<rect x="268" y="139" width="130" height="10" rx="5" fill="#e0d9c8"/>
<rect x="268" y="139" width="49" height="10" rx="5" fill="#9a7bb8"/>
<text x="406" y="149" fill="#9a7bb8" font-family="Segoe UI, system-ui, sans-serif" font-size="12" font-weight="700">38%</text>
<rect x="10" y="164" width="500" height="30" rx="8" fill="#f3efe4" filter="url(#soft)" stroke="#e4dcc8" stroke-width="1"/>
<text x="20" y="178" fill="#2f2a24" font-family="Segoe UI, system-ui, sans-serif" font-size="11" font-weight="700">GTA III Definitive Edition</text>
<text x="20" y="190" fill="#8a8376" font-family="Segoe UI, system-ui, sans-serif" font-size="9">Unreal (UE4) · unknown</text>
<rect x="268" y="175" width="130" height="10" rx="5" fill="#e0d9c8"/>
<rect x="268" y="175" width="28" height="10" rx="5" fill="#c45c5c"/>
<text x="406" y="185" fill="#c45c5c" font-family="Segoe UI, system-ui, sans-serif" font-size="12" font-weight="700">22%</text>
<rect x="10" y="200" width="500" height="30" rx="8" fill="#fffcf5" filter="url(#soft)" stroke="#e4dcc8" stroke-width="1"/>
<text x="20" y="214" fill="#2f2a24" font-family="Segoe UI, system-ui, sans-serif" font-size="11" font-weight="700">Flashback 2</text>
<text x="20" y="226" fill="#8a8376" font-family="Segoe UI, system-ui, sans-serif" font-size="9">Unity · great</text>
<rect x="268" y="211" width="130" height="10" rx="5" fill="#e0d9c8"/>
<rect x="268" y="211" width="23" height="10" rx="5" fill="#c45c5c"/>
<text x="406" y="221" fill="#c45c5c" font-family="Segoe UI, system-ui, sans-serif" font-size="12" font-weight="700">18%</text>
<rect x="10" y="236" width="500" height="30" rx="8" fill="#f3efe4" filter="url(#soft)" stroke="#e4dcc8" stroke-width="1"/>
<text x="20" y="250" fill="#2f2a24" font-family="Segoe UI, system-ui, sans-serif" font-size="11" font-weight="700">Raiden IV x MIKADO remix</text>
<text x="20" y="262" fill="#8a8376" font-family="Segoe UI, system-ui, sans-serif" font-size="9">Proprietary · MOSS (Ra · none</text>
<rect x="268" y="247" width="130" height="10" rx="5" fill="#e0d9c8"/>
<rect x="268" y="247" width="18" height="10" rx="5" fill="#c45c5c"/>
<text x="406" y="257" fill="#c45c5c" font-family="Segoe UI, system-ui, sans-serif" font-size="12" font-weight="700">14%</text>
<rect x="10" y="272" width="500" height="30" rx="8" fill="#fffcf5" filter="url(#soft)" stroke="#e4dcc8" stroke-width="1"/>
<text x="20" y="286" fill="#2f2a24" font-family="Segoe UI, system-ui, sans-serif" font-size="11" font-weight="700">Bugsnax</text>
<text x="20" y="298" fill="#8a8376" font-family="Segoe UI, system-ui, sans-serif" font-size="9">Young Horses / Irrlich · ok</text>
<rect x="268" y="283" width="130" height="10" rx="5" fill="#e0d9c8"/>
<rect x="268" y="283" width="15" height="10" rx="5" fill="#c45c5c"/>
<text x="406" y="293" fill="#c45c5c" font-family="Segoe UI, system-ui, sans-serif" font-size="12" font-weight="700">12%</text>
<rect x="10" y="308" width="500" height="30" rx="8" fill="#f3efe4" filter="url(#soft)" stroke="#e4dcc8" stroke-width="1"/>
<text x="20" y="322" fill="#2f2a24" font-family="Segoe UI, system-ui, sans-serif" font-size="11" font-weight="700">Dead Cells</text>
<text x="20" y="334" fill="#8a8376" font-family="Segoe UI, system-ui, sans-serif" font-size="9">Heaps / HashLink · ok</text>
<rect x="268" y="319" width="130" height="10" rx="5" fill="#e0d9c8"/>
<rect x="268" y="319" width="15" height="10" rx="5" fill="#c45c5c"/>
<text x="406" y="329" fill="#c45c5c" font-family="Segoe UI, system-ui, sans-serif" font-size="12" font-weight="700">12%</text>
<rect x="10" y="344" width="500" height="30" rx="8" fill="#fffcf5" filter="url(#soft)" stroke="#e4dcc8" stroke-width="1"/>
<text x="20" y="358" fill="#2f2a24" font-family="Segoe UI, system-ui, sans-serif" font-size="11" font-weight="700">OCTOPATH TRAVELER II</text>
<text x="20" y="370" fill="#8a8376" font-family="Segoe UI, system-ui, sans-serif" font-size="9">Unreal Engine (UE4) · unknown</text>
<rect x="268" y="355" width="130" height="10" rx="5" fill="#e0d9c8"/>
<rect x="268" y="355" width="10" height="10" rx="5" fill="#c45c5c"/>
<text x="406" y="365" fill="#c45c5c" font-family="Segoe UI, system-ui, sans-serif" font-size="12" font-weight="700">8%</text>
<text x="16" y="396" fill="#9a9588" font-family="Segoe UI, system-ui, sans-serif" font-size="9">85+ great · 55–84 progress · 25–54 early · 1–24 broken · 0 untested</text>
</svg>
